<svg width="35" height="35" viewBox="0 0 35 35" fill="none" xmlns="http://www.w3.org/2000/svg">
<rect y="35" width="35" height="35" rx="5" transform="rotate(-90 0 35)" fill="#FF00A8"/>
<path d="M17.9167 25.2767C19.7659 25.0414 21.4561 24.1108 22.6438 22.674C23.8315 21.2373 24.4275 19.4022 24.3108 17.5418C24.1941 15.6814 23.3733 13.9352 22.0154 12.6582C20.6574 11.3812 18.8641 10.6691 17 10.6668C15.1337 10.6654 13.337 11.3757 11.9761 12.653C10.6152 13.9302 9.79251 15.6782 9.67564 17.5409C9.55877 19.4037 10.1565 21.2408 11.3471 22.6782C12.5377 24.1155 14.2315 25.0448 16.0834 25.2767V19.8335H14.25V18.0002H16.0834V16.484C16.0834 15.2584 16.2117 14.8138 16.45 14.3656C16.6848 13.9221 17.0477 13.5595 17.4914 13.3252C17.8415 13.1372 18.277 13.0245 19.0378 12.9759C19.3394 12.9567 19.7299 12.9805 20.2093 13.0492V14.7909H19.75C18.9095 14.7909 18.562 14.8303 18.3549 14.9412C18.2313 15.0048 18.1306 15.1055 18.067 15.2291C17.957 15.4362 17.9167 15.6416 17.9167 16.4831V18.0002H20.2084L19.75 19.8335H17.9167V25.2767ZM17 27.1668C11.9373 27.1668 7.83337 23.0629 7.83337 18.0002C7.83337 12.9374 11.9373 8.8335 17 8.8335C22.0628 8.8335 26.1667 12.9374 26.1667 18.0002C26.1667 23.0629 22.0628 27.1668 17 27.1668Z" fill="#F0F0F0"/>
</svg>
