<svg width="35" height="35" viewBox="0 0 35 35" fill="none" xmlns="http://www.w3.org/2000/svg">
<rect y="35" width="35" height="35" rx="5" transform="rotate(-90 0 35)" fill="#FF00A8"/>
<path d="M13.825 8.75H21.175C23.975 8.75 26.25 11.025 26.25 13.825V21.175C26.25 22.521 25.7153 23.8118 24.7636 24.7636C23.8118 25.7153 22.521 26.25 21.175 26.25H13.825C11.025 26.25 8.75 23.975 8.75 21.175V13.825C8.75 12.479 9.28469 11.1882 10.2364 10.2364C11.1882 9.28469 12.479 8.75 13.825 8.75ZM13.65 10.5C12.8146 10.5 12.0134 10.8319 11.4226 11.4226C10.8319 12.0134 10.5 12.8146 10.5 13.65V21.35C10.5 23.0912 11.9087 24.5 13.65 24.5H21.35C22.1854 24.5 22.9866 24.1681 23.5774 23.5774C24.1681 22.9866 24.5 22.1854 24.5 21.35V13.65C24.5 11.9087 23.0912 10.5 21.35 10.5H13.65ZM22.0938 11.8125C22.3838 11.8125 22.662 11.9277 22.8671 12.1329C23.0723 12.338 23.1875 12.6162 23.1875 12.9062C23.1875 13.1963 23.0723 13.4745 22.8671 13.6796C22.662 13.8848 22.3838 14 22.0938 14C21.8037 14 21.5255 13.8848 21.3204 13.6796C21.1152 13.4745 21 13.1963 21 12.9062C21 12.6162 21.1152 12.338 21.3204 12.1329C21.5255 11.9277 21.8037 11.8125 22.0938 11.8125ZM17.5 13.125C18.6603 13.125 19.7731 13.5859 20.5936 14.4064C21.4141 15.2269 21.875 16.3397 21.875 17.5C21.875 18.6603 21.4141 19.7731 20.5936 20.5936C19.7731 21.4141 18.6603 21.875 17.5 21.875C16.3397 21.875 15.2269 21.4141 14.4064 20.5936C13.5859 19.7731 13.125 18.6603 13.125 17.5C13.125 16.3397 13.5859 15.2269 14.4064 14.4064C15.2269 13.5859 16.3397 13.125 17.5 13.125ZM17.5 14.875C16.8038 14.875 16.1361 15.1516 15.6438 15.6438C15.1516 16.1361 14.875 16.8038 14.875 17.5C14.875 18.1962 15.1516 18.8639 15.6438 19.3562C16.1361 19.8484 16.8038 20.125 17.5 20.125C18.1962 20.125 18.8639 19.8484 19.3562 19.3562C19.8484 18.8639 20.125 18.1962 20.125 17.5C20.125 16.8038 19.8484 16.1361 19.3562 15.6438C18.8639 15.1516 18.1962 14.875 17.5 14.875Z" fill="#F0F0F0"/>
</svg>
