<svg width="35" height="35" viewBox="0 0 35 35" fill="none" xmlns="http://www.w3.org/2000/svg">
<rect y="35" width="35" height="35" rx="5" transform="rotate(-90 0 35)" fill="#FF00A8"/>
<path d="M21.5834 19.0358V22.4247H19.619V19.2622C19.619 18.4684 19.3348 17.9266 18.6235 17.9266C18.0808 17.9266 17.7572 18.2915 17.6152 18.6453C17.5638 18.7718 17.5501 18.9478 17.5501 19.1238V22.4247H15.5847C15.5847 22.4247 15.6113 17.0695 15.5847 16.515H17.5501V17.3519L17.5372 17.3711H17.5501V17.3519C17.8113 16.9485 18.277 16.3756 19.3211 16.3756C20.6136 16.3756 21.5834 17.2208 21.5834 19.0358ZM13.5287 13.665C12.8567 13.665 12.4167 14.1069 12.4167 14.6862C12.4167 15.2545 12.8439 15.7083 13.503 15.7083H13.5158C14.2015 15.7083 14.6277 15.2536 14.6277 14.6862C14.6149 14.1069 14.2015 13.665 13.5287 13.665ZM12.5332 22.4247H14.4985V16.515H12.5332V22.4247Z" fill="#F0F0F0"/>
<path d="M11.4999 10.6663C11.0137 10.6663 10.5474 10.8595 10.2036 11.2033C9.85974 11.5471 9.66659 12.0134 9.66659 12.4997V23.4997C9.66659 23.9859 9.85974 24.4522 10.2036 24.796C10.5474 25.1399 11.0137 25.333 11.4999 25.333H22.4999C22.9861 25.333 23.4525 25.1399 23.7963 24.796C24.1401 24.4522 24.3333 23.9859 24.3333 23.4997V12.4997C24.3333 12.0134 24.1401 11.5471 23.7963 11.2033C23.4525 10.8595 22.9861 10.6663 22.4999 10.6663H11.4999ZM11.4999 8.83301H22.4999C23.4724 8.83301 24.405 9.21932 25.0926 9.90695C25.7803 10.5946 26.1666 11.5272 26.1666 12.4997V23.4997C26.1666 24.4721 25.7803 25.4048 25.0926 26.0924C24.405 26.78 23.4724 27.1663 22.4999 27.1663H11.4999C10.5275 27.1663 9.59483 26.78 8.90719 26.0924C8.21956 25.4048 7.83325 24.4721 7.83325 23.4997V12.4997C7.83325 11.5272 8.21956 10.5946 8.90719 9.90695C9.59483 9.21932 10.5275 8.83301 11.4999 8.83301Z" fill="#F0F0F0"/>
</svg>
