<svg width="35" height="35" viewBox="0 0 35 35" fill="none" xmlns="http://www.w3.org/2000/svg">
<rect y="35" width="35" height="35" rx="5" transform="rotate(-90 0 35)" fill="#FF00A8"/>
<path d="M22.3 11.5501C21.54 11.55 20.8103 11.8482 20.2679 12.3807C19.7256 12.9131 19.4139 13.6372 19.4 14.3971L19.372 15.9721C19.3704 16.0567 19.3509 16.1399 19.3148 16.2164C19.2787 16.2929 19.2269 16.3609 19.1627 16.416C19.0985 16.471 19.0233 16.5119 18.9422 16.5359C18.8611 16.5599 18.7758 16.5664 18.692 16.5551L17.131 16.3431C15.077 16.0631 13.109 15.1171 11.221 13.5441C10.623 16.8541 11.791 19.1471 14.604 20.9161L16.351 22.0141C16.434 22.0663 16.503 22.138 16.5519 22.223C16.6007 22.308 16.6281 22.4036 16.6314 22.5016C16.6348 22.5996 16.6141 22.6969 16.5711 22.785C16.5282 22.8731 16.4643 22.9494 16.385 23.0071L14.793 24.1701C15.74 24.2291 16.639 24.1871 17.385 24.0391C22.103 23.0971 25.24 19.5471 25.24 13.6911C25.24 13.2131 24.228 11.5501 22.3 11.5501ZM17.4 14.3601C17.4175 13.3962 17.7189 12.4588 18.2666 11.6653C18.8142 10.8719 19.5838 10.2576 20.4789 9.89948C21.3741 9.54133 22.3549 9.45519 23.2988 9.65186C24.2426 9.84853 25.1074 10.3193 25.785 11.0051C26.496 11.0001 27.101 11.1801 28.454 10.3601C28.119 12.0001 27.954 12.7121 27.24 13.6911C27.24 21.3331 22.543 25.0491 17.777 26.0001C14.509 26.6521 9.75702 25.5811 8.39502 24.1591C9.08902 24.1051 11.909 23.8021 13.539 22.6091C12.16 21.7001 6.67102 18.4701 10.278 9.78611C11.971 11.7631 13.688 13.1091 15.428 13.8231C16.586 14.2981 16.87 14.2881 17.401 14.3611L17.4 14.3601Z" fill="#F0F0F0"/>
</svg>
