<svg width="35" height="35" viewBox="0 0 35 35" fill="none" xmlns="http://www.w3.org/2000/svg">
<rect y="35" width="35" height="35" rx="5" transform="rotate(-90 0 35)" fill="#FF00A8"/>
<path d="M27.5 17.9345C27.5 17.8829 27.5 17.8243 27.4977 17.7563C27.4953 17.5665 27.4906 17.3532 27.4859 17.1259C27.4672 16.472 27.4344 15.8204 27.3828 15.2063C27.3125 14.3603 27.2094 13.6548 27.0687 13.1251C26.9204 12.5723 26.6295 12.0682 26.2252 11.6631C25.8209 11.2579 25.3173 10.966 24.7648 10.8165C24.1016 10.6384 22.8031 10.5282 20.975 10.4603C20.1055 10.4274 19.175 10.4063 18.2445 10.3946C17.9187 10.3899 17.6164 10.3876 17.3445 10.3853H16.6555C16.3836 10.3876 16.0813 10.3899 15.7555 10.3946C14.825 10.4063 13.8945 10.4274 13.025 10.4603C11.1969 10.5306 9.89609 10.6407 9.23516 10.8165C8.6825 10.9657 8.17876 11.2574 7.7744 11.6626C7.37004 12.0678 7.07928 12.5721 6.93125 13.1251C6.78828 13.6548 6.6875 14.3603 6.61719 15.2063C6.56562 15.8204 6.53281 16.472 6.51406 17.1259C6.50703 17.3532 6.50469 17.5665 6.50234 17.7563C6.50234 17.8243 6.5 17.8829 6.5 17.9345V18.0657C6.5 18.1173 6.5 18.1759 6.50234 18.2438C6.50469 18.4337 6.50937 18.647 6.51406 18.8743C6.53281 19.5282 6.56562 20.1798 6.61719 20.7938C6.6875 21.6399 6.79063 22.3454 6.93125 22.8751C7.23125 23.9978 8.1125 24.8837 9.23516 25.1837C9.89609 25.3618 11.1969 25.472 13.025 25.5399C13.8945 25.5728 14.825 25.5938 15.7555 25.6056C16.0813 25.6103 16.3836 25.6126 16.6555 25.6149H17.3445C17.6164 25.6126 17.9187 25.6103 18.2445 25.6056C19.175 25.5938 20.1055 25.5728 20.975 25.5399C22.8031 25.4696 24.1039 25.3595 24.7648 25.1837C25.8875 24.8837 26.7687 24.0001 27.0687 22.8751C27.2117 22.3454 27.3125 21.6399 27.3828 20.7938C27.4344 20.1798 27.4672 19.5282 27.4859 18.8743C27.493 18.647 27.4953 18.4337 27.4977 18.2438C27.4977 18.1759 27.5 18.1173 27.5 18.0657V17.9345ZM25.8125 18.0563C25.8125 18.1056 25.8125 18.1595 25.8102 18.2228C25.8078 18.4056 25.8031 18.6071 25.7984 18.8251C25.782 19.4485 25.7492 20.072 25.7 20.6509C25.6367 21.4056 25.5477 22.0243 25.4375 22.4392C25.2922 22.9806 24.8656 23.4095 24.3266 23.5524C23.8344 23.6837 22.5945 23.7892 20.9094 23.8524C20.0562 23.8853 19.1375 23.9063 18.2211 23.9181C17.9 23.9228 17.6023 23.9251 17.3352 23.9251H16.6648L15.7789 23.9181C14.8625 23.9063 13.9461 23.8853 13.0906 23.8524C11.4055 23.7868 10.1633 23.6837 9.67344 23.5524C9.13437 23.4071 8.70781 22.9806 8.5625 22.4392C8.45234 22.0243 8.36328 21.4056 8.3 20.6509C8.25078 20.072 8.22031 19.4485 8.20156 18.8251C8.19453 18.6071 8.19219 18.4032 8.18984 18.2228C8.18984 18.1595 8.1875 18.1032 8.1875 18.0563V17.9438C8.1875 17.8946 8.1875 17.8407 8.18984 17.7774C8.19219 17.5946 8.19688 17.3931 8.20156 17.1751C8.21797 16.5517 8.25078 15.9282 8.3 15.3493C8.36328 14.5946 8.45234 13.9759 8.5625 13.561C8.70781 13.0196 9.13437 12.5907 9.67344 12.4478C10.1656 12.3165 11.4055 12.211 13.0906 12.1478C13.9438 12.1149 14.8625 12.0938 15.7789 12.0821C16.1 12.0774 16.3977 12.0751 16.6648 12.0751H17.3352L18.2211 12.0821C19.1375 12.0938 20.0539 12.1149 20.9094 12.1478C22.5945 12.2134 23.8367 12.3165 24.3266 12.4478C24.8656 12.5931 25.2922 13.0196 25.4375 13.561C25.5477 13.9759 25.6367 14.5946 25.7 15.3493C25.7492 15.9282 25.7797 16.5517 25.7984 17.1751C25.8055 17.3931 25.8078 17.597 25.8102 17.7774C25.8102 17.8407 25.8125 17.897 25.8125 17.9438V18.0563ZM14.9141 21.1407L20.3516 17.9767L14.9141 14.8595V21.1407Z" fill="#F0F0F0"/>
</svg>
